<svg width="375" height="375" viewBox="0 0 375 375" fill="none" xmlns="http://www.w3.org/2000/svg">
<rect x="20" y="20" width="335" height="335" fill="#F9F9F9"/>
<path d="M87.3211 285.84V278.84L92.9211 278.28C99.4544 277.533 104.401 276.6 107.761 275.48C111.308 274.173 113.734 271.56 115.041 267.64C116.534 263.533 117.281 256.907 117.281 247.76V123.44C117.281 114.107 116.628 107.48 115.321 103.56C114.014 99.64 111.588 97.12 108.041 96C104.681 94.6933 99.7344 93.6667 93.2011 92.92L87.6011 92.36V85.36L129.041 86.2H168.521C193.721 86.2 215.001 89.56 232.361 96.28C249.908 103 263.254 113.64 272.401 128.2C281.548 142.573 286.121 161.427 286.121 184.76C286.121 201.373 283.321 215.933 277.721 228.44C272.121 240.947 264.468 251.4 254.761 259.8C245.054 268.2 233.948 274.547 221.441 278.84C209.121 282.947 196.148 285 182.521 285H128.761L87.3211 285.84ZM159.841 276.6H183.641C206.414 276.6 224.708 269.227 238.521 254.48C252.334 239.547 259.241 216.493 259.241 185.32C259.241 166.28 256.534 150.04 251.121 136.6C245.894 122.973 237.214 112.613 225.081 105.52C213.134 98.24 196.988 94.6 176.641 94.6H141.361V244.12C141.361 249.533 141.734 254.76 142.481 259.8C143.228 264.653 144.908 268.667 147.521 271.84C150.134 275.013 154.241 276.6 159.841 276.6Z" fill="black"/>
<rect x="20" y="20" width="335" height="335" stroke="#111111" stroke-width="40"/>
</svg>
