<?xml version="1.0" encoding="UTF-8" standalone="no"?>
<svg
   width="30"
   height="30"
   viewBox="0 0 30 30"
   fill="none"
   version="1.1"
   id="svg6"
   sodipodi:docname="quetion_circle.svg"
   inkscape:version="1.1 (c68e22c387, 2021-05-23)"
   xmlns:inkscape="http://www.inkscape.org/namespaces/inkscape"
   xmlns:sodipodi="http://sodipodi.sourceforge.net/DTD/sodipodi-0.dtd"
   xmlns="http://www.w3.org/2000/svg"
   xmlns:svg="http://www.w3.org/2000/svg">
  <defs
     id="defs10" />
  <sodipodi:namedview
     id="namedview8"
     pagecolor="#ffffff"
     bordercolor="#666666"
     borderopacity="1.0"
     inkscape:pageshadow="2"
     inkscape:pageopacity="0.0"
     inkscape:pagecheckerboard="0"
     showgrid="false"
     inkscape:zoom="28.066667"
     inkscape:cx="14.982185"
     inkscape:cy="15.017815"
     inkscape:window-width="1920"
     inkscape:window-height="1027"
     inkscape:window-x="-8"
     inkscape:window-y="-8"
     inkscape:window-maximized="1"
     inkscape:current-layer="svg6" />
  <circle
     cx="15"
     cy="15"
     r="14.5"
     fill="#F9F9F9"
     stroke="#111111"
     id="circle2"
     style="fill:none" />
  <path
     d="M13.8477 18.418H13.543L12.9805 18.4297C12.9336 18.4297 12.8359 18.4258 12.6875 18.418C12.6797 18.3711 12.5859 17.5508 12.4062 15.957C12.3203 15.1914 12.2656 14.7461 12.2422 14.6211L12.2305 14.5039C12.2305 14.3711 12.3047 14.2539 12.4531 14.1523C12.6016 14.0508 12.8945 14 13.332 14H14.6094C15.7812 14 16.5898 13.8242 17.0352 13.4727C17.4727 13.1211 17.6914 12.6289 17.6914 11.9961C17.6914 11.3477 17.4531 10.7891 16.9766 10.3203C16.5078 9.85156 15.9805 9.61719 15.3945 9.61719C15.0977 9.61719 14.6445 9.73047 14.0352 9.95703C13.4258 10.1758 12.9297 10.2852 12.5469 10.2852C12.1016 10.2852 11.7578 10.1758 11.5156 9.95703C11.2734 9.73047 11.1523 9.41016 11.1523 8.99609C11.1523 8.51172 11.3125 8.125 11.6328 7.83594C11.9531 7.53906 12.4727 7.39062 13.1914 7.39062C14.8867 7.39062 16.2773 7.92187 17.3633 8.98438C18.457 10.0391 19.0039 11.3516 19.0039 12.9219C19.0039 13.7266 18.8516 14.4336 18.5469 15.043C18.2422 15.6445 17.8281 16.0977 17.3047 16.4023C16.7812 16.6992 16.0625 16.9336 15.1484 17.1055C14.7188 17.1914 14.457 17.2578 14.3633 17.3047C14.2148 17.3828 14.1094 17.4805 14.0469 17.5977C13.9922 17.7148 13.9258 17.9883 13.8477 18.418ZM13.3789 19.8828C13.8789 19.8828 14.2852 20.043 14.5977 20.3633C14.918 20.6836 15.0781 21.0859 15.0781 21.5703C15.0781 22.0312 14.9141 22.4219 14.5859 22.7422C14.2578 23.0625 13.8555 23.2227 13.3789 23.2227C12.9102 23.2227 12.5117 23.0625 12.1836 22.7422C11.8555 22.4141 11.6914 22.0156 11.6914 21.5469C11.6914 21.0859 11.8594 20.6953 12.1953 20.375C12.5312 20.0469 12.9258 19.8828 13.3789 19.8828Z"
     fill="#111111"
     id="path4" />
</svg>
