<svg width="17" height="18" viewBox="0 0 17 18" fill="none" xmlns="http://www.w3.org/2000/svg">
<path d="M13.5834 17.3333C13.1385 17.3385 12.6986 17.2406 12.2979 17.0474C11.8971 16.8542 11.5466 16.571 11.2736 16.2197C11.0005 15.8685 10.8125 15.4589 10.7241 15.0229C10.6358 14.587 10.6495 14.1364 10.7642 13.7066L5.54752 10.725C5.10746 11.1281 4.55413 11.3863 3.96245 11.4646C3.37078 11.5429 2.76935 11.4374 2.23959 11.1626C1.70983 10.8877 1.27734 10.4566 1.00068 9.92781C0.724018 9.39898 0.616549 8.79791 0.692825 8.20598C0.769101 7.61404 1.02544 7.05985 1.42712 6.61843C1.82881 6.17701 2.35645 5.8697 2.93858 5.73809C3.52072 5.60649 4.12924 5.65696 4.68174 5.88267C5.23424 6.10837 5.70404 6.49841 6.02752 6.99997L10.7634 4.29247C10.7021 4.06096 10.6696 3.82277 10.6667 3.58331C10.6609 2.90683 10.8884 2.24902 11.3108 1.72064C11.7333 1.19225 12.3249 0.825569 12.986 0.682325C13.6472 0.539081 14.3375 0.628028 14.9408 0.934189C15.544 1.24035 16.0233 1.74502 16.2981 2.36324C16.5728 2.98145 16.6261 3.67543 16.449 4.32834C16.2719 4.98125 15.8752 5.55321 15.3258 5.94789C14.7764 6.34258 14.1077 6.5359 13.4325 6.4953C12.7572 6.4547 12.1165 6.18265 11.6184 5.72497L6.49335 8.65414C6.48752 8.87081 6.45752 9.08497 6.40252 9.29414L11.6192 12.275C11.9683 11.9545 12.3904 11.7242 12.8488 11.6038C13.3071 11.4834 13.7879 11.4768 14.2495 11.5843C14.711 11.6919 15.1393 11.9104 15.4972 12.221C15.8552 12.5316 16.1319 12.9248 16.3035 13.3666C16.475 13.8083 16.5361 14.2853 16.4816 14.756C16.4271 15.2268 16.2585 15.6771 15.9905 16.0679C15.7225 16.4588 15.3631 16.7783 14.9437 16.9988C14.5242 17.2193 14.0572 17.3341 13.5834 17.3333ZM13.5834 13.1666C13.2518 13.1666 12.9339 13.2983 12.6995 13.5328C12.465 13.7672 12.3334 14.0851 12.3334 14.4166C12.3334 14.7482 12.465 15.0661 12.6995 15.3005C12.9339 15.5349 13.2518 15.6666 13.5834 15.6666C13.9149 15.6666 14.2328 15.5349 14.4672 15.3005C14.7017 15.0661 14.8334 14.7482 14.8334 14.4166C14.8334 14.0851 14.7017 13.7672 14.4672 13.5328C14.2328 13.2983 13.9149 13.1666 13.5834 13.1666ZM3.58335 7.33331C3.25183 7.33331 2.93389 7.465 2.69947 7.69942C2.46505 7.93384 2.33335 8.25179 2.33335 8.58331C2.33335 8.91483 2.46505 9.23277 2.69947 9.46719C2.93389 9.70161 3.25183 9.83331 3.58335 9.83331C3.91487 9.83331 4.23281 9.70161 4.46724 9.46719C4.70166 9.23277 4.83335 8.91483 4.83335 8.58331C4.83335 8.25179 4.70166 7.93384 4.46724 7.69942C4.23281 7.465 3.91487 7.33331 3.58335 7.33331ZM13.5834 2.33331C13.4192 2.33331 13.2567 2.36564 13.105 2.42846C12.9533 2.49127 12.8155 2.58335 12.6995 2.69942C12.5834 2.8155 12.4913 2.95329 12.4285 3.10495C12.3657 3.25661 12.3334 3.41915 12.3334 3.58331C12.3334 3.74746 12.3657 3.91 12.4285 4.06166C12.4913 4.21332 12.5834 4.35112 12.6995 4.46719C12.8155 4.58326 12.9533 4.67534 13.105 4.73816C13.2567 4.80097 13.4192 4.83331 13.5834 4.83331C13.9149 4.83331 14.2328 4.70161 14.4672 4.46719C14.7017 4.23277 14.8334 3.91483 14.8334 3.58331C14.8334 3.25179 14.7017 2.93384 14.4672 2.69942C14.2328 2.465 13.9149 2.33331 13.5834 2.33331Z" fill="#F9F9F9"/>
</svg>
