<svg width="18" height="18" viewBox="0 0 18 18" fill="none" xmlns="http://www.w3.org/2000/svg">
<path d="M9 0.875C5.55375 0.875 2.75 3.67875 2.75 7.125C2.75 10.5712 5.55375 13.375 9 13.375C12.4462 13.375 15.25 10.5712 15.25 7.125C15.25 3.67875 12.4462 0.875 9 0.875ZM9 2.125C11.7569 2.125 14 4.36813 14 7.125C14 9.88188 11.7569 12.125 9 12.125C6.24312 12.125 4 9.88188 4 7.125C4 4.36813 6.24312 2.125 9 2.125ZM8.375 3.375V4.11875C7.92434 4.2826 7.55118 4.60894 7.32875 5.03375C7.13503 5.40775 7.07673 5.83727 7.16375 6.24937C7.24066 6.60792 7.41898 6.9368 7.6775 7.19687C7.84812 7.3675 8.05125 7.50563 8.275 7.60125C8.49875 7.69688 8.74375 7.75 9 7.75C9.08875 7.75 9.1725 7.76688 9.2475 7.7975C9.32174 7.8277 9.38919 7.87246 9.44586 7.92914C9.50254 7.98581 9.5473 8.05326 9.5775 8.1275C9.60812 8.2025 9.625 8.28625 9.625 8.375C9.62772 8.49812 9.59312 8.61917 9.52574 8.72225C9.45836 8.82532 9.36136 8.90559 9.2475 8.9525C9.1725 8.98312 9.08875 9 9 9C8.91063 9 8.8275 8.98312 8.7525 8.9525C8.67832 8.9222 8.61096 8.87736 8.55437 8.82063C8.49645 8.76193 8.45076 8.69231 8.41997 8.61581C8.38918 8.53931 8.37389 8.45746 8.375 8.375H7.125C7.12507 8.86129 7.31764 9.32777 7.66063 9.6725C7.86134 9.8772 8.10547 10.0342 8.375 10.1319V10.875H9.625V10.1312C9.94014 10.0183 10.2196 9.82364 10.4349 9.56723C10.6501 9.31081 10.7934 9.00183 10.85 8.67188C10.9272 8.20319 10.8201 7.72281 10.5513 7.33125C10.4156 7.13158 10.2434 6.95939 10.0437 6.82375C9.84135 6.68641 9.61424 6.58963 9.375 6.53875C9.25166 6.51301 9.126 6.50003 9 6.5C8.91063 6.5 8.8275 6.48312 8.7525 6.4525C8.67826 6.4223 8.61081 6.37754 8.55414 6.32086C8.49746 6.26419 8.4527 6.19674 8.4225 6.1225C8.39073 6.04387 8.3746 5.9598 8.375 5.875C8.375 5.78562 8.39188 5.7025 8.4225 5.6275C8.4527 5.55326 8.49746 5.48581 8.55414 5.42914C8.61081 5.37246 8.67826 5.3277 8.7525 5.2975C8.8275 5.26688 8.91125 5.25 9 5.25C9.35625 5.25 9.625 5.51875 9.625 5.875H10.875C10.8752 5.6788 10.8439 5.48384 10.7825 5.2975C10.6905 5.02669 10.5387 4.7801 10.3383 4.57603C10.1379 4.37196 9.89409 4.21566 9.625 4.11875V3.375H8.375ZM0.25 12.125V17.125H1.5V13.375H4.8625C4.33253 13.0206 3.84953 12.6006 3.425 12.125H0.25ZM14.575 12.125C14.1505 12.6006 13.6675 13.0206 13.1375 13.375H16.5V17.125H17.75V12.125H14.575ZM2.75 14.625V15.875H15.25V14.625H2.75Z" fill="#111111"/>
</svg>
